<svg xmlns="http://www.w3.org/2000/svg" viewBox="0 0 800 600">
    <!-- Background -->
    <rect width="800" height="600" fill="#f8f9fa"/>
    
    <!-- Main Execution Context -->
    <rect x="50" y="50" width="700" height="500" rx="10" fill="#ffffff" stroke="#333" stroke-width="2"/>
    <text x="60" y="80" font-family="Arial" font-size="16" fill="#333">Main Execution Context</text>
    
    <!-- Memory Space -->
    <rect x="70" y="100" width="250" height="430" rx="5" fill="#e9ecef" stroke="#666"/>
    <text x="80" y="130" font-family="Arial" font-size="14" fill="#333">Memory Space</text>
    
    <!-- var declaration -->
    <rect x="90" y="150" width="210" height="80" fill="#d1ecf1" stroke="#0c5460"/>
    <text x="100" y="175" font-family="Arial" font-size="12" fill="#0c5460">var x;</text>
    <text x="100" y="195" font-family="Arial" font-size="12" fill="#0c5460">Hoisted: undefined</text>
    <text x="100" y="215" font-family="Arial" font-size="12" fill="#0c5460">Accessible immediately</text>
    
    <!-- let declaration -->
    <rect x="90" y="250" width="210" height="120" fill="#f8d7da" stroke="#721c24"/>
    <text x="100" y="275" font-family="Arial" font-size="12" fill="#721c24">let y;</text>
    <path d="M100,285 L280,285" stroke="#721c24" stroke-width="2" stroke-dasharray="5,5"/>
    <text x="100" y="305" font-family="Arial" font-size="12" fill="#721c24">TDZ (Cannot access)</text>
    <text x="100" y="325" font-family="Arial" font-size="12" fill="#721c24">Until declaration</text>
    <text x="100" y="345" font-family="Arial" font-size="12" fill="#721c24">line is reached</text>
    
    <!-- Block Scope -->
    <rect x="90" y="390" width="210" height="120" fill="#d4edda" stroke="#155724"/>
    <text x="100" y="415" font-family="Arial" font-size="12" fill="#155724">Block Scope { }</text>
    <text x="100" y="435" font-family="Arial" font-size="12" fill="#155724">Own TDZ for let/const</text>
    <text x="100" y="455" font-family="Arial" font-size="12" fill="#155724">Separate memory space</text>
    <text x="100" y="475" font-family="Arial" font-size="12" fill="#155724">for block variables</text>
    
    <!-- Execution Flow -->
    <rect x="340" y="100" width="390" height="430" rx="5" fill="#fff3cd" stroke="#856404"/>
    <text x="350" y="130" font-family="Arial" font-size="14" fill="#856404">Code Execution Flow</text>
    
    <!-- Execution Steps -->
    <line x1="360" y1="160" x2="360" y2="500" stroke="#856404" stroke-width="2"/>
    
    <!-- Step 1: Creation Phase -->
    <circle cx="360" cy="180" r="5" fill="#856404"/>
    <text x="375" y="185" font-family="Arial" font-size="12" fill="#856404">1. Creation Phase: Setup Memory Space</text>
    
    <!-- Step 2: Hoisting -->
    <circle cx="360" cy="240" r="5" fill="#856404"/>
    <text x="375" y="245" font-family="Arial" font-size="12" fill="#856404">2. Hoisting: var declarations moved up</text>
    
    <!-- Step 3: TDZ -->
    <circle cx="360" cy="300" r="5" fill="#856404"/>
    <text x="375" y="305" font-family="Arial" font-size="12" fill="#856404">3. TDZ starts for let/const</text>
    
    <!-- Step 4: Execution -->
    <circle cx="360" cy="360" r="5" fill="#856404"/>
    <text x="375" y="365" font-family="Arial" font-size="12" fill="#856404">4. Code Execution: Line by line</text>
    
    <!-- Step 5: Declaration -->
    <circle cx="360" cy="420" r="5" fill="#856404"/>
    <text x="375" y="425" font-family="Arial" font-size="12" fill="#856404">5. Variable Declaration: TDZ ends</text>
    
    <!-- Step 6: Block Exit -->
    <circle cx="360" cy="480" r="5" fill="#856404"/>
    <text x="375" y="485" font-family="Arial" font-size="12" fill="#856404">6. Block Exit: Clear block memory</text>
    
    <!-- Arrows connecting Memory and Execution -->
    <path d="M290,190 L340,190" stroke="#666" stroke-width="1" marker-end="url(#arrowhead)"/>
    <path d="M290,310 L340,310" stroke="#666" stroke-width="1" marker-end="url(#arrowhead)"/>
    <path d="M290,450 L340,450" stroke="#666" stroke-width="1" marker-end="url(#arrowhead)"/>
    
    <!-- Arrow Marker -->
    <defs>
        <marker id="arrowhead" markerWidth="10" markerHeight="7" refX="9" refY="3.5" orient="auto">
            <polygon points="0 0, 10 3.5, 0 7" fill="#666"/>
        </marker>
    </defs>
</svg>