<svg xmlns="http://www.w3.org/2000/svg" viewBox="0 0 800 600">
    <!-- Background -->
    <rect width="800" height="600" fill="#f8f9fa"/>
    
    <!-- const Initialization Section -->
    <rect x="20" y="20" width="360" height="560" fill="#fff" stroke="#333"/>
    <text x="30" y="50" font-family="Arial" font-size="16" font-weight="bold">Why TDZ ensures const initialization</text>
    
    <!-- Bad Scenario (Without TDZ) -->
    <rect x="30" y="70" width="340" height="240" fill="#f8d7da" stroke="#721c24"/>
    <text x="40" y="90" font-family="Arial" font-size="14">Without TDZ:</text>
    
    <rect x="40" y="100" width="320" height="200" fill="#fff"/>
    <text x="50" y="130" font-family="Arial" font-size="12">console.log(const_var); // undefined</text>
    <text x="50" y="160" font-family="Arial" font-size="12">// Some code...</text>
    <text x="50" y="190" font-family="Arial" font-size="12">const const_var = 42;</text>
    <text x="50" y="220" font-family="Arial" font-size="12">const_var = 43; // Error!</text>
    <text x="50" y="250" font-family="Arial" font-size="12">Problem: const was undefined before init!</text>
    <text x="50" y="270" font-family="Arial" font-size="12">Violates const immutability!</text>
    
    <!-- Good Scenario (With TDZ) -->
    <rect x="30" y="330" width="340" height="240" fill="#d4edda" stroke="#155724"/>
    <text x="40" y="350" font-family="Arial" font-size="14">With TDZ:</text>
    
    <rect x="40" y="360" width="320" height="200" fill="#fff"/>
    <text x="50" y="390" font-family="Arial" font-size="12">console.log(const_var); // Error!</text>
    <text x="50" y="420" font-family="Arial" font-size="12">// TDZ prevents access</text>
    <text x="50" y="450" font-family="Arial" font-size="12">const const_var = 42; // First value</text>
    <text x="50" y="480" font-family="Arial" font-size="12">const_var = 43; // Error!</text>
    <text x="50" y="510" font-family="Arial" font-size="12">✓ const always has exactly one value</text>
    <text x="50" y="530" font-family="Arial" font-size="12">✓ Maintains true immutability</text>
    
    <!-- Hoisting Process Section -->
    <rect x="400" y="20" width="380" height="560" fill="#fff" stroke="#333"/>
    <text x="410" y="50" font-family="Arial" font-size="16" font-weight="bold">Hoisting is a V8 Process</text>
    
    <!-- Memory Visual -->
    <rect x="410" y="70" width="360" height="480" fill="#e9ecef" stroke="#666"/>
    
    <!-- V8 Process Steps -->
    <rect x="420" y="90" width="340" height="100" fill="#fff"/>
    <text x="430" y="110" font-family="Arial" font-size="14" font-weight="bold">1. Parse Phase</text>
    <text x="430" y="130" font-family="Arial" font-size="12">- V8 scans code</text>
    <text x="430" y="150" font-family="Arial" font-size="12">- Identifies declarations</text>
    <text x="430" y="170" font-family="Arial" font-size="12">- No physical movement</text>
    
    <rect x="420" y="210" width="340" height="100" fill="#fff"/>
    <text x="430" y="230" font-family="Arial" font-size="14" font-weight="bold">2. Setup Phase</text>
    <text x="430" y="250" font-family="Arial" font-size="12">- Creates variable records</text>
    <text x="430" y="270" font-family="Arial" font-size="12">- Allocates memory</text>
    <text x="430" y="290" font-family="Arial" font-size="12">- Sets up execution context</text>
    
    <rect x="420" y="330" width="340" height="200" fill="#fff"/>
    <text x="430" y="350" font-family="Arial" font-size="14" font-weight="bold">3. Execution Phase</text>
    <text x="430" y="370" font-family="Arial" font-size="12">var x;</text>
    <text x="430" y="390" font-family="Arial" font-size="12">⬇️ V8 processes as ⬇️</text>
    <text x="430" y="420" font-family="Arial" font-size="12">1. Record: "x exists"</text>
    <text x="430" y="440" font-family="Arial" font-size="12">2. Initialize: x = undefined</text>
    <text x="430" y="460" font-family="Arial" font-size="12">3. Execute: Normal code flow</text>
    <text x="430" y="500" font-family="Arial" font-size="12">No physical code movement!</text>
</svg>